<mxfile host="app.diagrams.net" agent="Mozilla/5.0 (Macintosh; Intel Mac OS X 10_15_7) AppleWebKit/537.36 (KHTML, like Gecko) Chrome/137.0.0.0 Safari/537.36" version="28.2.3">
  <diagram id="Ht1M8jgEwFfnCIfOTk4-" name="Page-1">
    <mxGraphModel dx="1093" dy="1160" grid="1" gridSize="10" guides="1" tooltips="1" connect="1" arrows="1" fold="1" page="1" pageScale="1" pageWidth="1169" pageHeight="827" math="0" shadow="0">
      <root>
        <mxCell id="0" />
        <mxCell id="1" parent="0" />
        <mxCell id="DWm0uvoQZJ4-6f2IKjMZ-1" value="AWS Cloud" style="points=[[0,0],[0.25,0],[0.5,0],[0.75,0],[1,0],[1,0.25],[1,0.5],[1,0.75],[1,1],[0.75,1],[0.5,1],[0.25,1],[0,1],[0,0.75],[0,0.5],[0,0.25]];outlineConnect=0;html=1;whiteSpace=wrap;fontSize=12;fontStyle=0;container=1;pointerEvents=0;collapsible=0;recursiveResize=0;shape=mxgraph.aws4.group;grIcon=mxgraph.aws4.group_aws_cloud;verticalAlign=top;align=left;spacingLeft=30;dashed=0;fillColor=#fff2cc;strokeColor=#d6b656;gradientColor=#ffd966;" vertex="1" parent="1">
          <mxGeometry x="178" y="840" width="902" height="470" as="geometry" />
        </mxCell>
        <mxCell id="DWm0uvoQZJ4-6f2IKjMZ-11" value="" style="sketch=0;points=[[0,0,0],[0.25,0,0],[0.5,0,0],[0.75,0,0],[1,0,0],[0,1,0],[0.25,1,0],[0.5,1,0],[0.75,1,0],[1,1,0],[0,0.25,0],[0,0.5,0],[0,0.75,0],[1,0.25,0],[1,0.5,0],[1,0.75,0]];outlineConnect=0;fontColor=#232F3E;fillColor=#8C4FFF;strokeColor=#ffffff;dashed=0;verticalLabelPosition=bottom;verticalAlign=top;align=center;html=1;fontSize=12;fontStyle=0;aspect=fixed;shape=mxgraph.aws4.resourceIcon;resIcon=mxgraph.aws4.route_53;" vertex="1" parent="DWm0uvoQZJ4-6f2IKjMZ-1">
          <mxGeometry x="12" y="200" width="78" height="78" as="geometry" />
        </mxCell>
        <mxCell id="DWm0uvoQZJ4-6f2IKjMZ-36" style="edgeStyle=orthogonalEdgeStyle;rounded=0;orthogonalLoop=1;jettySize=auto;html=1;exitX=0.5;exitY=0;exitDx=0;exitDy=0;exitPerimeter=0;" edge="1" parent="DWm0uvoQZJ4-6f2IKjMZ-1" source="DWm0uvoQZJ4-6f2IKjMZ-14" target="DWm0uvoQZJ4-6f2IKjMZ-23">
          <mxGeometry relative="1" as="geometry" />
        </mxCell>
        <mxCell id="DWm0uvoQZJ4-6f2IKjMZ-14" value="" style="sketch=0;points=[[0,0,0],[0.25,0,0],[0.5,0,0],[0.75,0,0],[1,0,0],[0,1,0],[0.25,1,0],[0.5,1,0],[0.75,1,0],[1,1,0],[0,0.25,0],[0,0.5,0],[0,0.75,0],[1,0.25,0],[1,0.5,0],[1,0.75,0]];outlineConnect=0;fontColor=#232F3E;fillColor=#DD344C;strokeColor=#ffffff;dashed=0;verticalLabelPosition=bottom;verticalAlign=top;align=center;html=1;fontSize=12;fontStyle=0;aspect=fixed;shape=mxgraph.aws4.resourceIcon;resIcon=mxgraph.aws4.certificate_manager_3;" vertex="1" parent="DWm0uvoQZJ4-6f2IKjMZ-1">
          <mxGeometry x="12" y="350" width="78" height="78" as="geometry" />
        </mxCell>
        <mxCell id="DWm0uvoQZJ4-6f2IKjMZ-4" value="VPC" style="points=[[0,0],[0.25,0],[0.5,0],[0.75,0],[1,0],[1,0.25],[1,0.5],[1,0.75],[1,1],[0.75,1],[0.5,1],[0.25,1],[0,1],[0,0.75],[0,0.5],[0,0.25]];outlineConnect=0;gradientColor=none;html=1;whiteSpace=wrap;fontSize=12;fontStyle=0;container=1;pointerEvents=0;collapsible=0;recursiveResize=0;shape=mxgraph.aws4.group;grIcon=mxgraph.aws4.group_vpc2;strokeColor=#8C4FFF;fillColor=none;verticalAlign=top;align=left;spacingLeft=30;fontColor=#AAB7B8;dashed=0;" vertex="1" parent="DWm0uvoQZJ4-6f2IKjMZ-1">
          <mxGeometry x="172" y="149" width="678" height="180" as="geometry" />
        </mxCell>
        <mxCell id="DWm0uvoQZJ4-6f2IKjMZ-2" value="Private subnet" style="points=[[0,0],[0.25,0],[0.5,0],[0.75,0],[1,0],[1,0.25],[1,0.5],[1,0.75],[1,1],[0.75,1],[0.5,1],[0.25,1],[0,1],[0,0.75],[0,0.5],[0,0.25]];outlineConnect=0;gradientColor=none;html=1;whiteSpace=wrap;fontSize=12;fontStyle=0;container=1;pointerEvents=0;collapsible=0;recursiveResize=0;shape=mxgraph.aws4.group;grIcon=mxgraph.aws4.group_security_group;grStroke=0;strokeColor=#00A4A6;fillColor=#E6F6F7;verticalAlign=top;align=left;spacingLeft=30;fontColor=#147EBA;dashed=0;" vertex="1" parent="DWm0uvoQZJ4-6f2IKjMZ-4">
          <mxGeometry x="490" y="27.5" width="130" height="125" as="geometry" />
        </mxCell>
        <mxCell id="DWm0uvoQZJ4-6f2IKjMZ-28" value="RDS" style="text;html=1;align=center;verticalAlign=middle;resizable=0;points=[];autosize=1;strokeColor=none;fillColor=none;" vertex="1" parent="DWm0uvoQZJ4-6f2IKjMZ-2">
          <mxGeometry x="40" y="105.5" width="50" height="30" as="geometry" />
        </mxCell>
        <mxCell id="DWm0uvoQZJ4-6f2IKjMZ-7" value="" style="sketch=0;points=[[0,0,0],[0.25,0,0],[0.5,0,0],[0.75,0,0],[1,0,0],[0,1,0],[0.25,1,0],[0.5,1,0],[0.75,1,0],[1,1,0],[0,0.25,0],[0,0.5,0],[0,0.75,0],[1,0.25,0],[1,0.5,0],[1,0.75,0]];outlineConnect=0;fontColor=#232F3E;fillColor=#C925D1;strokeColor=#ffffff;dashed=0;verticalLabelPosition=bottom;verticalAlign=top;align=center;html=1;fontSize=12;fontStyle=0;aspect=fixed;shape=mxgraph.aws4.resourceIcon;resIcon=mxgraph.aws4.rds;" vertex="1" parent="DWm0uvoQZJ4-6f2IKjMZ-2">
          <mxGeometry x="25.5" y="23" width="79" height="79" as="geometry" />
        </mxCell>
        <mxCell id="DWm0uvoQZJ4-6f2IKjMZ-3" value="Public subnet" style="points=[[0,0],[0.25,0],[0.5,0],[0.75,0],[1,0],[1,0.25],[1,0.5],[1,0.75],[1,1],[0.75,1],[0.5,1],[0.25,1],[0,1],[0,0.75],[0,0.5],[0,0.25]];outlineConnect=0;gradientColor=none;html=1;whiteSpace=wrap;fontSize=12;fontStyle=0;container=1;pointerEvents=0;collapsible=0;recursiveResize=0;shape=mxgraph.aws4.group;grIcon=mxgraph.aws4.group_security_group;grStroke=0;strokeColor=#7AA116;fillColor=#F2F6E8;verticalAlign=top;align=left;spacingLeft=30;fontColor=#248814;dashed=0;" vertex="1" parent="DWm0uvoQZJ4-6f2IKjMZ-4">
          <mxGeometry x="52" y="23.25" width="368" height="135.75" as="geometry" />
        </mxCell>
        <mxCell id="DWm0uvoQZJ4-6f2IKjMZ-8" value="" style="sketch=0;points=[[0,0,0],[0.25,0,0],[0.5,0,0],[0.75,0,0],[1,0,0],[0,1,0],[0.25,1,0],[0.5,1,0],[0.75,1,0],[1,1,0],[0,0.25,0],[0,0.5,0],[0,0.75,0],[1,0.25,0],[1,0.5,0],[1,0.75,0]];outlineConnect=0;fontColor=#232F3E;fillColor=#ED7100;strokeColor=#ffffff;dashed=0;verticalLabelPosition=bottom;verticalAlign=top;align=center;html=1;fontSize=12;fontStyle=0;aspect=fixed;shape=mxgraph.aws4.resourceIcon;resIcon=mxgraph.aws4.fargate;" vertex="1" parent="DWm0uvoQZJ4-6f2IKjMZ-3">
          <mxGeometry x="198" y="27.75" width="78" height="78" as="geometry" />
        </mxCell>
        <mxCell id="DWm0uvoQZJ4-6f2IKjMZ-73" value="" style="shape=image;verticalLabelPosition=bottom;labelBackgroundColor=default;verticalAlign=top;aspect=fixed;imageAspect=0;image=data:image/png,iVBORw0KGgoAAAANSUhEUgAAAGQAAABkCAYAAABw4pVUAAAAAXNSR0IArs4c6QAAAERlWElmTU0AKgAAAAgAAYdpAAQAAAABAAAAGgAAAAAAA6ABAAMAAAABAAEAAKACAAQAAAABAAAAZKADAAQAAAABAAAAZAAAAAAvu95BAAALuklEQVR4Ae1be3BU1Rn/7d1Nsq8E5FWQShl5CANKKY+EIChKA4LAdKiOo1i0rU5tLUOdQmnBPoZ2Ko6oY4tj/QNmBFFrtSrySEonVR4JYKswAq0IwvBSnoHsLptk997+zpKN997sOxshme8Mm3vuOd/5zjm/7zvf+c53LoAkQUAQEAQEAUFAEBAEBAFBQBAQBAQBQUAQEAQEAUFAEBAEBAFBQBAQBAQBQUAQEAQEAUFAEBAEBAFBQBAQBAQBQUAQEAQEAUFAEBAEBAFBQBAQBLJCwJEVdR6I/wo4r/PjBR3o5QReKQvg1Tyw7TQstK96JncDUSOKgU4dE/mckUn/2wFPJnRCkwCBvUBhguKERdWAKx3YuwFfjRf1NR6sri3BoISMOlGhK19z2VGMwbqOZ+oMHEEIPzbzXQd43R48XKzhWsPASAO4EQ50o70sUHQUSohlZx06Dmga9tCcfciBVY0N4vOma+AyGnHS4cAcPYKtJD9g5t3Z8nnbQ2p8+AXBeYK/qBbFoNIwPqvy45YGA89EDIwocEDrngV6FJDBwX0EA39zGlgddWKAZuB8aRBcNJ035U0gH1Dbm3xY49Dwp9M66hHFy00ahhHYWCpiT9kIxAw5eXDRoJK/5eVB/NNc19nyeROIAobAaZt8eIX25y6+Wni3RSBm0NnHB5oDC+mdVZvLO0veAlpbJlXlwzfDOjY3ORIvhHwJxDTGd3UX5o+/gIOmsg6fzYvbW+nBvKCBfycTRjuhdKcWwV7uXU+k89Taqf92YdvmFbLBi5Vh4EGakpQp3Qqh93WBg9lMb6qWxu4Yd/Sj9NqC3ND5D72gob/DwGhDRznzQ8ydse1+tp0zLoT/mMs7Yr5NAlnvQ2XYQEUmE08kEAKtcwAb+FzREMTmW+mh8d0i2609UOy4hOfoYR10avj72AD2Khc7qmM2BfQDCm+A6p+NGtn28bIgnuJTOQEdMmVksmr8eISHsyXmGVIY/8pUGOZ2pvwGroIRRhB3cxDDi7zYs92L0ab6WNYZQHfWP0Dgl1II41RhaT0+obf1x7IQBlNQd3JV1VAIhaxaRhO2cUsXXBNr3AH/pBVIrR/30CT8WQESFwqF8Q6FcUtO8zUQoDo/NC6I6eMD+LiO2qwbeJygDuUKGGPnOS6MwwUaepJmbJSryVyvVkJpCOvpcZWT5yyOcx/LKri31G4txg1m2o6S5/hTp1ovHqYmP0+qRmrjxPPA90PAIxa7kppFrFaZLKrtUZ5TKsrr8V9zk1gfdGfbugeosM1FLxZSeRbTnIWjGmZR6O+b+7ra82kFoibAVTKb2uc+b8B7CXgxl0kVMTzSXccwpfG5tM+mTfMes5ZthvI3m+ZtUzbtryRtRgJRA9xUgoHhCPbTbOQS/zJ8LswoaUIhY1V+bryr23vSarXU+7CMpu5+pxM3cN8529595oN/RgKheXK+48HnEQd65NKpH/hDCfAmTd8WrrSQXoDBEy6A1q/9U3VXdJ1UB25VHSOl3dTVNNZ78Wquwihk9HdKCEt4mDhNu65zH9p98gIuflXwdCRhKEzSrpBKL0YFgV1cJWlpE4HcFRh1e/OBjS7pffSYKkfX40ycdrsP3yPjPvH3JE+DwvyfHkJVOcBtLHmqBtyeYrrPBnrzMGIZM5Whjged3dzoT9k5cBxTGSPzmcsbgfcnBnB6mxdj6AH2M9fxcLqn7GLmVwHb/BjO64WBbBe7crDwan7Ro9hhGXAionVeHOfArk1Ul67M7cCH04P4Vio6Cmkn61u5u4nacD84w2vfxTx/vJionrzmUhBPUwzdEtU3l0WpXGsbCjDPvHookM8IRn9zO7rit6kgJi/HXiaQ91rqgAXqEGouS5TfXowhVKZVHFdZonpzGcd1b0qTxbDI4lyFoSTtcmC+ucO25qnBPbgP/YXAL7Pz2u7HXZzQqjTCUM2cHNv9RU3YzEMNnb/2S9u6YACvqbdkIoz4KJIKRH2MQGEsjhNm+3TxMmlKO50BCPwCavSU+JjUXQy18FkCrfQgo0TCUV39eCgj4hyJHFEsV0qUTfOkAvF78Sxd3Jw/LnBpqNrlxvUEL2kf2QzUTKuAJ9Ofxcsa/Typ52BWGaicGeeR72dtN5RQSaZnyzd2pmAMaSRPybs50VhQToH4NsMbmetb624Lo1gRceLXNC+9aotwT9m5zD0r9j+Xfcc2bwU+XeUFfFriXKSZrM4aw1RQUecBkATmxIl8Qu38JeuO0GQUMIpZwT3hd2Yaen7Wjdpc2cZ8tBH9qDTWM5uBNwwt+XmICvKpa6cPvbkSdtb6cKLGwEojhCervPgVy3K2rxxIdHIYWyiMNcSpHxpimrgm0zlqRXjLLECap/1su8fW3hlwoy94d09heG114Oa/ihvym6byWsbi5pO2JfCoa5l/IWPik1HWpcOtQtnmxPff08P7yFxmz7MdI6mXJdmPG+ZchlOXrjPwqF3j7A1TvXPXPF3dE349CC+1FCrol4o+Xd2xIPZ93RcL1VvMHz984JkzceK8qFPWpMosDKzVeX3juS1i74v7al+a8ZYzGMdjOMM4xqXfFO9coys5J/5Cm7eyyo2befPH40Puiabg6KTTCBTqKKW5+JirTml4zukbxRhAudrnpz5L+SJnpu3ckCv0pL0LrpB3acYPxn+6E4eaPDi7zYfl8VtPF8U4qYDxHgL3ADV5FbVuLfNtShTsYcVgTBiH6AGVUgNSHubsnRlh3Epzx6Dy5cTvsRa1EoeBUwwanonTXG1PnlG+4BzUGWtsyrFp4OdqeMzhw+i9QXzbpU6ibPC0+qnN/C1vzGNJySNdJV2gY3EaCqMF2HiZ+Xlex/Vc3vb0tkUpVL1NSYo0HGIxVz1wUcfIBhsP3lbdvLErXjczPteILlS6lkQgvhZ/YSS7l93GeQ0MZn01627it2WWVOhIfeBVxCEHngrqeI1Z2+gsrOIvE+t8eMniBfDLkcdowixlceqsnnrr5ZqsPc2jO5KsMkk5Z2e4o/h5vJqmq7jFCDcX8n0mGlO7tRQI5XY58cxFC2tNDLPEnAWaGr+dP0EqtlK3frs9gNfpIA0JAL9Vyt6awlpCZZlpAb/JwINWktzeuJFfyK1l+lZKGF4HFlWEsC099ZWn4DiX8jJmhe7BQrq8w7m3tAiGX3VOoDK2OCZUAI9FIKxUS7TNiYwZj8x/chuo5n3K/KnBVi5w/jvLI8epwDnuoovsLBlF30fMh8bLlTltEcjGEkwLRb58jxPl8lSmYIcft7GzSHkAW5RW58LH3oYa1u2Oq0QYnFCfSj++ax+jeo+4sGt6HY5scmMCsWhZEXbaBn6Ebi9rEYgRwQ/tlbm+0xZ354A9DHevoKdxgJ+EzBoXyNz1LaKXxk26v71/LvERG3zYNC0IKt2VTfzIYxTVzOI0xEfkjWAF84+GNLxHHKiPmSVK7stzEj0MOkT5SZqOnuQUOyNwNIPoC43PhrNWiMnUlGOJ2lwyMIVRaPMJPBEZ6AWd9AAvmX8kzMtKTdhhHgo55+P8XU4USO94vq1Pmpb+jMu8Rt0Ik5ebzxuz4UmvKVISwtB6D47QC2t1t0Gm39noxXN3hDAvGV+uzr3TQoyJmRJd+vs4T+6rV2filzlLYvatshuu40CT3mRlO3zeAA1Qn/SEC9CHAb2fUC3pVWaXJgEBhxc3Eb1Wh0ql5iz8KYXym+y4Xp3Uyqb5NLxQwY8/YiuE/0NpIE/r5/I1XEo55vY238g9n4ovaQ+x775mGl4eqZWFGWdx/B9ejKe93kghtFIYng1+xI31jWiUUVKH9aMJ0h8w81R5CvcEJ9/iZjLfEldS5oJeThdLGw0n1DuV6lOOMeNwEvkcVu0YuzrFR6txqzqV2H8TeR/gAWgJ3eP3LpfKX0FAEBAEBAFBQBAQBAQBQUAQEAQEAUFAEBAEBAFBQBAQBAQBQUAQEAQEAUFAEBAEBAFBQBAQBAQBQUAQEAQEAUFAEBAEBAFBQBAQBAQBQUAQEASyQuD/RRdgXbyRwXoAAAAASUVORK5CYII=;" vertex="1" parent="DWm0uvoQZJ4-6f2IKjMZ-3">
          <mxGeometry x="276" y="70.75" width="49.25" height="49.25" as="geometry" />
        </mxCell>
        <mxCell id="DWm0uvoQZJ4-6f2IKjMZ-38" value="" style="sketch=0;points=[[0,0,0],[0.25,0,0],[0.5,0,0],[0.75,0,0],[1,0,0],[0,1,0],[0.25,1,0],[0.5,1,0],[0.75,1,0],[1,1,0],[0,0.25,0],[0,0.5,0],[0,0.75,0],[1,0.25,0],[1,0.5,0],[1,0.75,0]];outlineConnect=0;fontColor=#232F3E;fillColor=#ED7100;strokeColor=#ffffff;dashed=0;verticalLabelPosition=bottom;verticalAlign=top;align=center;html=1;fontSize=12;fontStyle=0;aspect=fixed;shape=mxgraph.aws4.resourceIcon;resIcon=mxgraph.aws4.elastic_load_balancing;" vertex="1" parent="DWm0uvoQZJ4-6f2IKjMZ-3">
          <mxGeometry x="48" y="27.75" width="78" height="78" as="geometry" />
        </mxCell>
        <mxCell id="DWm0uvoQZJ4-6f2IKjMZ-25" value="ALB" style="text;html=1;align=center;verticalAlign=middle;resizable=0;points=[];autosize=1;strokeColor=none;fillColor=none;" vertex="1" parent="DWm0uvoQZJ4-6f2IKjMZ-3">
          <mxGeometry x="62" y="105.75" width="50" height="30" as="geometry" />
        </mxCell>
        <mxCell id="DWm0uvoQZJ4-6f2IKjMZ-27" value="ECSFargate" style="text;html=1;align=center;verticalAlign=middle;resizable=0;points=[];autosize=1;strokeColor=none;fillColor=none;" vertex="1" parent="DWm0uvoQZJ4-6f2IKjMZ-3">
          <mxGeometry x="192" y="105.75" width="90" height="30" as="geometry" />
        </mxCell>
        <mxCell id="DWm0uvoQZJ4-6f2IKjMZ-88" style="edgeStyle=orthogonalEdgeStyle;rounded=0;orthogonalLoop=1;jettySize=auto;html=1;exitX=1;exitY=0.5;exitDx=0;exitDy=0;exitPerimeter=0;entryX=0;entryY=0.5;entryDx=0;entryDy=0;entryPerimeter=0;" edge="1" parent="DWm0uvoQZJ4-6f2IKjMZ-3" source="DWm0uvoQZJ4-6f2IKjMZ-38" target="DWm0uvoQZJ4-6f2IKjMZ-8">
          <mxGeometry relative="1" as="geometry" />
        </mxCell>
        <mxCell id="DWm0uvoQZJ4-6f2IKjMZ-90" style="edgeStyle=orthogonalEdgeStyle;rounded=0;orthogonalLoop=1;jettySize=auto;html=1;entryX=0;entryY=0.5;entryDx=0;entryDy=0;entryPerimeter=0;" edge="1" parent="DWm0uvoQZJ4-6f2IKjMZ-4" source="DWm0uvoQZJ4-6f2IKjMZ-8" target="DWm0uvoQZJ4-6f2IKjMZ-7">
          <mxGeometry relative="1" as="geometry" />
        </mxCell>
        <mxCell id="DWm0uvoQZJ4-6f2IKjMZ-12" value="" style="sketch=0;points=[[0,0,0],[0.25,0,0],[0.5,0,0],[0.75,0,0],[1,0,0],[0,1,0],[0.25,1,0],[0.5,1,0],[0.75,1,0],[1,1,0],[0,0.25,0],[0,0.5,0],[0,0.75,0],[1,0.25,0],[1,0.5,0],[1,0.75,0]];outlineConnect=0;fontColor=#232F3E;gradientColor=#4D72F3;gradientDirection=north;fillColor=#3334B9;strokeColor=#ffffff;dashed=0;verticalLabelPosition=bottom;verticalAlign=top;align=center;html=1;fontSize=12;fontStyle=0;aspect=fixed;shape=mxgraph.aws4.resourceIcon;resIcon=mxgraph.aws4.simple_email_service;" vertex="1" parent="DWm0uvoQZJ4-6f2IKjMZ-1">
          <mxGeometry x="562" y="362" width="78" height="78" as="geometry" />
        </mxCell>
        <mxCell id="DWm0uvoQZJ4-6f2IKjMZ-23" value="Route53" style="text;html=1;align=center;verticalAlign=middle;resizable=0;points=[];autosize=1;strokeColor=none;fillColor=none;" vertex="1" parent="DWm0uvoQZJ4-6f2IKjMZ-1">
          <mxGeometry x="16" y="270" width="70" height="30" as="geometry" />
        </mxCell>
        <mxCell id="DWm0uvoQZJ4-6f2IKjMZ-24" value="ACM" style="text;html=1;align=center;verticalAlign=middle;resizable=0;points=[];autosize=1;strokeColor=none;fillColor=none;" vertex="1" parent="DWm0uvoQZJ4-6f2IKjMZ-1">
          <mxGeometry x="26" y="420" width="50" height="30" as="geometry" />
        </mxCell>
        <mxCell id="DWm0uvoQZJ4-6f2IKjMZ-35" style="edgeStyle=orthogonalEdgeStyle;rounded=0;orthogonalLoop=1;jettySize=auto;html=1;exitX=1;exitY=0.5;exitDx=0;exitDy=0;exitPerimeter=0;entryX=0.5;entryY=0;entryDx=0;entryDy=0;entryPerimeter=0;" edge="1" parent="DWm0uvoQZJ4-6f2IKjMZ-1" source="DWm0uvoQZJ4-6f2IKjMZ-8" target="DWm0uvoQZJ4-6f2IKjMZ-12">
          <mxGeometry relative="1" as="geometry" />
        </mxCell>
        <mxCell id="DWm0uvoQZJ4-6f2IKjMZ-37" value="SES" style="text;html=1;align=center;verticalAlign=middle;resizable=0;points=[];autosize=1;strokeColor=none;fillColor=none;" vertex="1" parent="DWm0uvoQZJ4-6f2IKjMZ-1">
          <mxGeometry x="576" y="440" width="50" height="30" as="geometry" />
        </mxCell>
        <mxCell id="DWm0uvoQZJ4-6f2IKjMZ-39" value="" style="sketch=0;points=[[0,0,0],[0.25,0,0],[0.5,0,0],[0.75,0,0],[1,0,0],[0,1,0],[0.25,1,0],[0.5,1,0],[0.75,1,0],[1,1,0],[0,0.25,0],[0,0.5,0],[0,0.75,0],[1,0.25,0],[1,0.5,0],[1,0.75,0]];outlineConnect=0;fontColor=#232F3E;fillColor=#ED7100;strokeColor=#ffffff;dashed=0;verticalLabelPosition=bottom;verticalAlign=top;align=center;html=1;fontSize=12;fontStyle=0;aspect=fixed;shape=mxgraph.aws4.resourceIcon;resIcon=mxgraph.aws4.ecr;" vertex="1" parent="DWm0uvoQZJ4-6f2IKjMZ-1">
          <mxGeometry x="512" y="30" width="78" height="78" as="geometry" />
        </mxCell>
        <mxCell id="DWm0uvoQZJ4-6f2IKjMZ-40" value="ECR" style="text;html=1;align=center;verticalAlign=middle;resizable=0;points=[];autosize=1;strokeColor=none;fillColor=none;" vertex="1" parent="DWm0uvoQZJ4-6f2IKjMZ-1">
          <mxGeometry x="526" y="108" width="50" height="30" as="geometry" />
        </mxCell>
        <mxCell id="DWm0uvoQZJ4-6f2IKjMZ-86" style="edgeStyle=orthogonalEdgeStyle;rounded=0;orthogonalLoop=1;jettySize=auto;html=1;" edge="1" parent="DWm0uvoQZJ4-6f2IKjMZ-1" source="DWm0uvoQZJ4-6f2IKjMZ-11" target="DWm0uvoQZJ4-6f2IKjMZ-38">
          <mxGeometry relative="1" as="geometry" />
        </mxCell>
        <mxCell id="DWm0uvoQZJ4-6f2IKjMZ-91" style="edgeStyle=orthogonalEdgeStyle;rounded=0;orthogonalLoop=1;jettySize=auto;html=1;exitX=0;exitY=0.5;exitDx=0;exitDy=0;exitPerimeter=0;entryX=0.75;entryY=0;entryDx=0;entryDy=0;entryPerimeter=0;" edge="1" parent="DWm0uvoQZJ4-6f2IKjMZ-1" source="DWm0uvoQZJ4-6f2IKjMZ-39" target="DWm0uvoQZJ4-6f2IKjMZ-8">
          <mxGeometry relative="1" as="geometry" />
        </mxCell>
        <mxCell id="DWm0uvoQZJ4-6f2IKjMZ-96" style="edgeStyle=orthogonalEdgeStyle;rounded=0;orthogonalLoop=1;jettySize=auto;html=1;exitX=0;exitY=0.75;exitDx=0;exitDy=0;" edge="1" parent="1" source="DWm0uvoQZJ4-6f2IKjMZ-21" target="DWm0uvoQZJ4-6f2IKjMZ-39">
          <mxGeometry relative="1" as="geometry" />
        </mxCell>
        <mxCell id="DWm0uvoQZJ4-6f2IKjMZ-21" value="" style="shape=image;html=1;verticalAlign=top;verticalLabelPosition=bottom;labelBackgroundColor=#ffffff;imageAspect=0;aspect=fixed;image=https://icons.diagrams.net/icon-cache1/Ionicons-2627/icon-social-github-1402.svg;imageBorder=default;" vertex="1" parent="1">
          <mxGeometry x="780" y="651.5" width="70" height="70" as="geometry" />
        </mxCell>
        <mxCell id="DWm0uvoQZJ4-6f2IKjMZ-58" value="" style="group;fillColor=#f5f5f5;gradientColor=#b3b3b3;strokeColor=#666666;" vertex="1" connectable="0" parent="1">
          <mxGeometry x="178" y="631.8" width="142" height="116.5" as="geometry" />
        </mxCell>
        <mxCell id="DWm0uvoQZJ4-6f2IKjMZ-22" value="" style="shape=image;html=1;verticalAlign=top;verticalLabelPosition=bottom;labelBackgroundColor=#ffffff;imageAspect=0;aspect=fixed;image=https://icons.diagrams.net/icon-cache1/Ionicons_Fill_Vol_2-2187/logo-vercel-632.svg;imageBackground=default;" vertex="1" parent="DWm0uvoQZJ4-6f2IKjMZ-58">
          <mxGeometry x="2" width="26.5" height="26.5" as="geometry" />
        </mxCell>
        <mxCell id="DWm0uvoQZJ4-6f2IKjMZ-46" value="" style="whiteSpace=wrap;html=1;fillColor=none;" vertex="1" parent="DWm0uvoQZJ4-6f2IKjMZ-58">
          <mxGeometry width="142" height="116.5" as="geometry" />
        </mxCell>
        <mxCell id="DWm0uvoQZJ4-6f2IKjMZ-48" value="Vercel" style="text;html=1;align=center;verticalAlign=middle;resizable=0;points=[];autosize=1;" vertex="1" parent="DWm0uvoQZJ4-6f2IKjMZ-58">
          <mxGeometry x="22" width="60" height="30" as="geometry" />
        </mxCell>
        <mxCell id="DWm0uvoQZJ4-6f2IKjMZ-56" value="" style="shape=image;verticalLabelPosition=bottom;labelBackgroundColor=default;verticalAlign=top;aspect=fixed;imageAspect=0;image=data:image/png,iVBORw0KGgoAAAANSUhEUgAAAGQAAABkCAYAAABw4pVUAAAAAXNSR0IArs4c6QAAAERlWElmTU0AKgAAAAgAAYdpAAQAAAABAAAAGgAAAAAAA6ABAAMAAAABAAEAAKACAAQAAAABAAAAZKADAAQAAAABAAAAZAAAAAAvu95BAAAMh0lEQVR4Ae2dC3BeRRWAk7YJSZoXaWNfidSqPAyKFMcJ2DpNBXwhUaYwlYBIqyjTqoPUkUFnFMaZImLHx0CxWIutUYQCU0UQ1GmYIjLVtNYSgU4bUtv0kaSPPAqhefkdJn/mz5+9/9177+797w93Z3buvWd3zzl7zp6zz3//nJw4xBKIJRBLIJZALIFYArEEYgnEEoglEEsgXAnkhksuELXc2bNnV4PhbOI5xGnEqbm5ueUjIyPFvOfw3sf7SV5PEbuIeyQeOnTofzyzIkRWIZWVlcWTJ09eOGnSpDoEvQhBvw+JTvUp1VOUbwFPE8+tw8PD244ePSpKi1yIlELmzZtX1t/ffzVCa0B4H0FaeZYkNgDe54iNBQUFm1tbW7st0fGMNhIKmTNnzuKhoaGbUEI9scBzLQIUQPmvE7dgjeva29u3BkBlpGhGFUKfcCnu407c0sVGahMQCYrZCS+rUcxmUI0EROereEYUIhaBItZgDRf44tpyIVEMFvPNgwcPNlkmNQF9qAqho56Zn59/NxW+Dk5CpT2h5nqAJ2g0N2MxB/WyB881OTgKPQyzZs36Cq3uD+T+MDEblCEVkyH28pKSkq7e3t4dArAdrAtm+vTpJVjFL6jI521XxiZ+LOWxvLy85W1tbTLPsRasKoRO+0L6iofpKN9jrQYhIsbV7qEu1+DCdtkia00hdNwfowKPw3iJLeYzhFcmmUsOHz78Zxv0rfQhWMa1MCtDx0IbTGcYZz70ryktLd1Hv/KiaV6MKwTLuBkmf0mcYprZqOCjPxG5fQ6ldKCUf5nky6hCsAzpuEUZk0wyGVFc4u4/jVJeRSnG+hRjfYj0GXTgf6L1nBFRAdpia4A+5TP0KU+bIGBEITKagpltRL+rsSbqkkkcvTTEhSZGX4FdiyyT00J+9zZWhjSEEhZHN1dUVJQGbRWBFcJk6X5ah2wYva2DzLVYyn8gqBACdeqyHIIybg/KxFuofA3LLO1Blll89yGyUIh1vIwwy95CAjVRlR7kcu7+/fsP+0Hm22VBdE2sDKXISwcHB3+oTNEA+rIQXNVHcVVN4PdVXoOvrM+CfBYz6vK8A+nHQkQJP4uVkb7NMPK8x4+MPCuEOccVaD+SO33pRfRm6lF4X8XblTy/y9Pm4Yb5VVVVn9TgaVwWzy4HhfwDDLXjsGTBBy32GBtkF7At255gl7qcy3szsSgBM/mE5vPM4OX0jHbwZCGyFw7mrFOGSAOLuC9ZGQLjAJ2MEhvl3UaA5iXIrM4Lbk8KkaM6XpBHLO9/HfgxvoSeTMerzLQVIofY0PiVycQsvQ9A5zdE8fXrMft+E3TAN+SAxwnukN0bGLr1XpZUtPcs5EQhyG1vOIkyPp48XGSIvRYRyPAxK3ceRWYsqSyB/1/pqFLbQmipDToIg+SB+YeSlSG46BSbob0iCN4IlNWWnZZCZEUXYXkaLfgRAvspyqM2KGUTaQ/5wRmFMjSoBTNmzNDamtBSCMPFhVTM1sHnMZmh9IGxj5QXeFgJ6EgKOCs+qVc+/Gs1aC2FsLTsaehmQ0q4smPgzeZRnpYMtRSChhfZELJXnMwb/oj5b/RaLiL5jSkkFyGcF5FK5RQWFn4dfg5EhR8PfNSQN9ctv6uFsLwgPyMrdkMUVrr8uAaLXQa9jPxcIEA9i1nbmu1W3lUhIIjc9iyu66/wJceNsipg2a6y1FHIe6NY69OnT98KX21R5C0NT3KaPm3QUUhlWgwZSuzq6pKjN9nmuqa7iUtHIZHpP1IrMzqrvzcVHtVvXJbr8o+rQkASBYU4jk5YTb2NWfzeqCohmS9k6Xpuy1UhuAVXrSYTtfE+c+bMT1RXV79bhVt+b84s+AukWV21VdH2CmOC7dq4XRXilaiN/Ai8GEt4ENxKfnFdsov5Exu0TeLEQlzPwSkrmMwESPqSvzP4voA50Uon+kVFRd8hrcUpPQpwXOvrbny4KgSX1euGJMT01WyJKoeOe/fufQOXsAxeBlX80LDqVfAwYfAXXCEwHBULEdkVIdhf81SaPnvm22lAd0tGRWjAwpYq4GGCOt2IuVoICFyRuBExnF6LYFc54SwvL7+DtN2qdJR5L8sXc1RpYcCg77p9oKMQueIoUoGK3cGGz/kqplpaWk4Dv4E4YW8F66nAj28gzXEYrcJpCobLcr2AQEchr5hiyBQeBHsGldtUU1OTr8LJWtdO4D9QpQG7DAv7mkOaVTBnfl9yI+CqEConWo3c3VIo5YMnTpxw/CkEhyNWw3ezSgBY2F3MbeT+rdACNPuZM+13I+iqEBCAaySqw8nbEfxFqko2NzcPMHf5Iry/kZqOMgvTWVhqfhPf8CFW6zp51VGInPprMsGUBRx58LZp7ty5BSrctMgXSf++Kg3Y/JMnT37PIc04GD5k8uoatBSCdre6YspchvNYipeRlTLgcn9EwguqROr1beBahw9U5T3C/q6TX0shjEy2wbyMXqIaVuG65GSMKoibENelmpTJfEZ+W287DLD1/DcdIloKkQU8TE5LwzpELeSReqxn9KQ8xY6VvEKfIUsrmQrbdO911FLIaC1+m6na6NClwcjO5l1OeVmA/Cl5nnVKtwmH7iO6+LUVwtneh0H6mi7iDOVbiZVc7kB7mHnAjaSFvTYnE1TzCjl+/HgPfYncCGczKNeo8P9KuIKRXGDrnE6b43pfJf02RTlrIHjfMnrIT4uGtoUINvYl1mlh9ZkJ065RFaVSymUSVV5gZ3Ha/McOafIjnbU0LK0O1gmHR/jPveSXFuUpMMN9ng7yYk+F9DOLS7wIob2cKMJyexUC3IWyKhIwjecIPF7B6u+TqryMyM4C339Ic91SVZXXhdGQdnJQfL5ufsmn6wrGcJaVlcmK5bVjALMveaC7niuP8rgRoYwoexgbEZ7raY0UNnKZpdfhujZ0d3f3p6Tl9PX1dYO7E7jtHyCtgNZY40rlQ/Xt2UJAkksLa0ZIcgNQ1EMj1nadE5PUQ66T+pRTehA41vHvUesY8YLHUx8yilgIfIPoiZAXpgzmbcDlLXHCN2XKlC8juONO6UHgKFpWATzLyI9C5FdN2yAW6XlJQpgI/D72Tt6R+E5+Hjhw4BDf0riMBmhuxjKf8YPUl0KEEGP6WyFs9Q5bPxVSlKlMNzqkcckPTB9VlPML6mZAcYvfwr4V0tHRIbcifMsv4ZDL1dNfNDjRHBgYWEFal1O6R/gtzDtcdwadcPrp1MfhYmYsriuMBbpxdL1+YM0n6DPOH3VTE4rT18j/lshqhO8grgqLu9o3Agr6tpAEUVrXTbx7Gtolyob5xJrPHD1sp2yEtOpHmO/8PgBP+1jR/VKA8m8WDayQzs7OPiq7FGxROi7kJBfZT1/ulIjvl4N4Ms/yGnpQ9md1V3TTIQ+sEEFO69rF4ypMNsp7Jgk5rGG1YW7iI/nJyEj6ka8mwzTeB7GspbI7qZHXNYsRhQgVKvMXLOUGXoddqWY2QwmWsAkWlHWnHltoWBs1WRwi741Hjhx5SjO/azbPSyfpMMpd6HL9Nnlk9qv01enKh5j2TpZOjsHvdhVN/mKjiWH99TSwdGtdcoHyUjrxIP3OBPJWhMYQ8yooNVKhggkUowN4Df4uxN3uUbFEX3MZ8KeJE2Q06ppFGY+rygaBKc02CEIpC6OPUVlZuItyR1+E798Aj0ovIS6YtPXEcQFlyGS43oYyhJCSmXEc+PzAHbTivp6kAotRzjSfaKwWg69qXNcpeFWeF+Dm1WeZu8jKdrkwQl128X0pVvVPW4xZsZAEszL6Yp7yIb4bE7CoPRHynRzAfr+KL9klRWnLSBvhKUsslzCx3KfKawo2wT+aQpyKB58sk6Z7iGWpaRH43kG/VyunHVW8MIuvpXG9oEozDbPmslIZxS3sYGv1QUx+BmkfIIbWGFJ5UXzPYiNpGB6bFGk5wH2vTanwpYNlRCi4iEV0qLLv7Wl7M11FDKSJddTSme8wgMs3itAsJJnDnp6eNlrdA2wHb0cx78I3VyenZ+hd+tMh+FLuw4fFU0YsJLVy+Og61oISf05s+17HVPJymfJGOve1DGVfSk0M+zsSCklUWs5TjV4Y2YCAFmA5+Yk0w09RwjPgf4IZ+aNyVNYwft/oIqWQ5FrIHYWsOYlS6oAvIsqZrWKin9CBa9wNvmbiUxwPeg4kyl/r+kFuskxkFaKqJK6tCvg5xLOJ07AiuZzzTJ5TefIYkbu0euRJ+jHeW3GFu1n8kyM/cYglEEsglkAsgVgCsQRiCcQSiCUQSyCWQCwBhQT+D19yAikm7OEDAAAAAElFTkSuQmCC;" vertex="1" parent="DWm0uvoQZJ4-6f2IKjMZ-58">
          <mxGeometry x="36.879999999999995" y="26.5" width="68.25" height="68.25" as="geometry" />
        </mxCell>
        <mxCell id="DWm0uvoQZJ4-6f2IKjMZ-57" value="Next.js" style="text;html=1;align=center;verticalAlign=middle;resizable=0;points=[];autosize=1;strokeColor=none;fillColor=none;" vertex="1" parent="DWm0uvoQZJ4-6f2IKjMZ-58">
          <mxGeometry x="41" y="86.5" width="60" height="30" as="geometry" />
        </mxCell>
        <mxCell id="DWm0uvoQZJ4-6f2IKjMZ-59" value="GitHub" style="text;html=1;align=center;verticalAlign=middle;resizable=0;points=[];autosize=1;strokeColor=none;fillColor=none;" vertex="1" parent="1">
          <mxGeometry x="785" y="721.5" width="60" height="30" as="geometry" />
        </mxCell>
        <mxCell id="DWm0uvoQZJ4-6f2IKjMZ-63" value="&lt;div&gt;フロントエンドは&lt;/div&gt;GitHubとVercelを連携して&lt;div&gt;CI/&lt;span style=&quot;background-color: transparent; color: light-dark(rgb(0, 0, 0), rgb(255, 255, 255));&quot;&gt;CDを構成&lt;/span&gt;&lt;/div&gt;" style="text;html=1;align=center;verticalAlign=middle;resizable=0;points=[];autosize=1;strokeColor=none;fillColor=none;" vertex="1" parent="1">
          <mxGeometry x="470" y="620" width="170" height="60" as="geometry" />
        </mxCell>
        <mxCell id="DWm0uvoQZJ4-6f2IKjMZ-64" value="&lt;div&gt;バックエンドは&lt;/div&gt;GitHub ActionsでCI/CDを構成" style="text;html=1;align=center;verticalAlign=middle;resizable=0;points=[];autosize=1;strokeColor=none;fillColor=none;" vertex="1" parent="1">
          <mxGeometry x="440" y="751.5" width="180" height="40" as="geometry" />
        </mxCell>
        <mxCell id="DWm0uvoQZJ4-6f2IKjMZ-69" style="edgeStyle=orthogonalEdgeStyle;rounded=0;orthogonalLoop=1;jettySize=auto;html=1;entryX=1;entryY=0.5;entryDx=0;entryDy=0;" edge="1" parent="1" source="DWm0uvoQZJ4-6f2IKjMZ-67" target="DWm0uvoQZJ4-6f2IKjMZ-21">
          <mxGeometry relative="1" as="geometry" />
        </mxCell>
        <mxCell id="DWm0uvoQZJ4-6f2IKjMZ-67" value="" style="sketch=0;outlineConnect=0;fontColor=#232F3E;gradientColor=none;fillColor=#232F3D;strokeColor=none;dashed=0;verticalLabelPosition=bottom;verticalAlign=top;align=center;html=1;fontSize=12;fontStyle=0;aspect=fixed;pointerEvents=1;shape=mxgraph.aws4.user;" vertex="1" parent="1">
          <mxGeometry x="970" y="650" width="73" height="73" as="geometry" />
        </mxCell>
        <mxCell id="DWm0uvoQZJ4-6f2IKjMZ-68" value="開発者" style="text;html=1;align=center;verticalAlign=middle;resizable=0;points=[];autosize=1;strokeColor=none;fillColor=none;" vertex="1" parent="1">
          <mxGeometry x="976.5" y="723" width="60" height="30" as="geometry" />
        </mxCell>
        <mxCell id="DWm0uvoQZJ4-6f2IKjMZ-77" style="edgeStyle=orthogonalEdgeStyle;rounded=0;orthogonalLoop=1;jettySize=auto;html=1;entryX=0;entryY=0.5;entryDx=0;entryDy=0;" edge="1" parent="1" source="DWm0uvoQZJ4-6f2IKjMZ-74" target="DWm0uvoQZJ4-6f2IKjMZ-46">
          <mxGeometry relative="1" as="geometry" />
        </mxCell>
        <mxCell id="DWm0uvoQZJ4-6f2IKjMZ-97" style="edgeStyle=orthogonalEdgeStyle;rounded=0;orthogonalLoop=1;jettySize=auto;html=1;entryX=0;entryY=0.5;entryDx=0;entryDy=0;" edge="1" parent="1" source="DWm0uvoQZJ4-6f2IKjMZ-74" target="DWm0uvoQZJ4-6f2IKjMZ-1">
          <mxGeometry relative="1" as="geometry" />
        </mxCell>
        <mxCell id="DWm0uvoQZJ4-6f2IKjMZ-74" value="devices" style="sketch=0;outlineConnect=0;gradientColor=none;fontColor=#545B64;strokeColor=none;fillColor=#879196;dashed=0;verticalLabelPosition=bottom;verticalAlign=top;align=center;html=1;fontSize=12;fontStyle=0;aspect=fixed;shape=mxgraph.aws4.illustration_devices;pointerEvents=1" vertex="1" parent="1">
          <mxGeometry x="20" y="747" width="100" height="73" as="geometry" />
        </mxCell>
        <mxCell id="DWm0uvoQZJ4-6f2IKjMZ-94" style="edgeStyle=orthogonalEdgeStyle;rounded=0;orthogonalLoop=1;jettySize=auto;html=1;entryX=0.93;entryY=0.47;entryDx=0;entryDy=0;entryPerimeter=0;" edge="1" parent="1" source="DWm0uvoQZJ4-6f2IKjMZ-21" target="DWm0uvoQZJ4-6f2IKjMZ-46">
          <mxGeometry relative="1" as="geometry" />
        </mxCell>
        <mxCell id="DWm0uvoQZJ4-6f2IKjMZ-95" style="edgeStyle=orthogonalEdgeStyle;rounded=0;orthogonalLoop=1;jettySize=auto;html=1;entryX=0.25;entryY=0;entryDx=0;entryDy=0;entryPerimeter=0;" edge="1" parent="1" source="DWm0uvoQZJ4-6f2IKjMZ-21" target="DWm0uvoQZJ4-6f2IKjMZ-8">
          <mxGeometry relative="1" as="geometry" />
        </mxCell>
        <mxCell id="DWm0uvoQZJ4-6f2IKjMZ-98" value="コード管理" style="text;html=1;align=center;verticalAlign=middle;resizable=0;points=[];autosize=1;strokeColor=none;fillColor=none;" vertex="1" parent="1">
          <mxGeometry x="880" y="658" width="80" height="30" as="geometry" />
        </mxCell>
      </root>
    </mxGraphModel>
  </diagram>
</mxfile>
